<svg width="23" height="23" viewBox="0 0 23 23" fill="none" xmlns="http://www.w3.org/2000/svg">
<path d="M22.3095 11.6717C22.3095 5.76497 17.4956 0.976562 11.5574 0.976562C5.61913 0.976562 0.805176 5.76497 0.805176 11.6717C0.805176 17.0099 4.73712 21.4346 9.87733 22.2369V14.7633H7.14728V11.6717H9.87733V9.31542C9.87733 6.63495 11.4826 5.15435 13.9386 5.15435C15.115 5.15435 16.3454 5.36324 16.3454 5.36324V7.99524H14.9897C13.654 7.99524 13.2374 8.81968 13.2374 9.66552V11.6717H16.2194L15.7427 14.7633H13.2374V22.2369C18.3776 21.4346 22.3095 17.01 22.3095 11.6717Z" fill="#1877F2"/>
<path d="M15.7425 14.7632L16.2193 11.6716H13.2372V9.66547C13.2372 8.81955 13.6538 7.99519 14.9895 7.99519H16.3453V5.36319C16.3453 5.36319 15.1148 5.1543 13.9384 5.1543C11.4824 5.1543 9.87714 6.6349 9.87714 9.31537V11.6716H7.14709V14.7632H9.87714V22.2368C10.4329 22.3235 10.9946 22.3669 11.5572 22.3668C12.1197 22.3669 12.6814 22.3235 13.2372 22.2368V14.7632H15.7425Z" fill="white"/>
</svg>
