<svg width="23" height="23" viewBox="0 0 23 23" fill="none" xmlns="http://www.w3.org/2000/svg">
<path d="M8.42974 1.56206C6.17142 2.3122 4.22384 3.736 2.87308 5.62431C1.52232 7.51263 0.839576 9.76593 0.925131 12.0532C1.01069 14.3406 1.86003 16.5413 3.34841 18.3323C4.83679 20.1232 6.88575 21.41 9.19434 22.0035C11.066 22.4659 13.0269 22.4862 14.9085 22.0627C16.6131 21.6961 18.189 20.9119 19.4819 19.7869C20.8276 18.5803 21.8044 17.0453 22.3072 15.3469C22.8538 13.5 22.951 11.5578 22.5915 9.66931H12.0814V13.8438H18.1682C18.0465 14.5096 17.7858 15.1451 17.4017 15.7122C17.0176 16.2793 16.518 16.7663 15.9327 17.1442C15.1894 17.615 14.3515 17.9317 13.4729 18.0741C12.5917 18.231 11.6878 18.231 10.8065 18.0741C9.91335 17.8973 9.06843 17.5443 8.32556 17.0377C7.13213 16.2288 6.23604 15.0797 5.76514 13.7542C5.28628 12.404 5.28628 10.9401 5.76514 9.58984C6.10033 8.64338 6.65446 7.78162 7.38615 7.0689C8.22348 6.23831 9.28357 5.64459 10.4501 5.3529C11.6166 5.06121 12.8445 5.08281 13.9991 5.41533C14.901 5.68043 15.7258 6.14361 16.4077 6.76795C17.094 6.11418 17.7791 5.45873 18.4631 4.80158C18.8162 4.44821 19.2012 4.11174 19.549 3.74992C18.5082 2.82249 17.2865 2.10084 15.9538 1.62631C13.5271 0.782599 10.8718 0.759925 8.42974 1.56206Z" fill="white"/>
<path d="M8.43004 1.56288C10.8719 0.760201 13.5272 0.782278 15.9541 1.62544C17.287 2.10319 18.5082 2.82832 19.5476 3.7592C19.1944 4.12102 18.8218 4.45917 18.4616 4.81085C17.7765 5.46575 17.0919 6.11838 16.408 6.76877C15.7261 6.14443 14.9013 5.68125 13.9994 5.41615C12.8452 5.08246 11.6174 5.05961 10.4505 5.35011C9.28367 5.64061 8.22293 6.23324 7.38468 7.06296C6.65299 7.77568 6.09887 8.63744 5.76367 9.5839L2.10315 6.87021C3.41339 4.38235 5.682 2.47932 8.43004 1.56288Z" fill="#E33629"/>
<path d="M1.13302 9.55942C1.32977 8.62577 1.65641 7.7216 2.10421 6.87109L5.76473 9.59155C5.28587 10.9418 5.28587 12.4057 5.76473 13.7559C4.54515 14.6577 3.32497 15.5639 2.10421 16.4747C0.98319 14.3381 0.641298 11.9037 1.13302 9.55942Z" fill="#F8BD00"/>
<path d="M12.0822 9.66797H22.5923C22.9518 11.5564 22.8546 13.4987 22.308 15.3456C21.8052 17.0439 20.8284 18.5789 19.4827 19.7855C18.3014 18.903 17.1148 18.0271 15.9334 17.1446C16.5191 16.7663 17.019 16.2787 17.4031 15.711C17.7873 15.1433 18.0477 14.5072 18.1689 13.8408H12.0822C12.0804 12.451 12.0822 11.0595 12.0822 9.66797Z" fill="#587DBD"/>
<path d="M2.10107 16.4746C3.32184 15.5729 4.54201 14.6666 5.76159 13.7559C6.23343 15.0818 7.13081 16.231 8.32555 17.0393C9.07073 17.5436 9.91748 17.8937 10.8118 18.0673C11.693 18.2242 12.5969 18.2242 13.4782 18.0673C14.3568 17.9249 15.1947 17.6082 15.9379 17.1374C17.1193 18.02 18.3059 18.8958 19.4872 19.7784C18.1945 20.904 16.6185 21.6888 14.9138 22.0559C13.0321 22.4794 11.0712 22.4591 9.19962 21.9967C7.71935 21.6182 6.33667 20.9511 5.13826 20.0371C3.86982 19.0728 2.83381 17.8576 2.10107 16.4746Z" fill="#319F43"/>
</svg>
